<svg width="36" height="33" viewBox="0 0 36 33" fill="none" xmlns="http://www.w3.org/2000/svg">
<path d="M17.4706 30.9375C20.7165 30.9375 23.8896 30.0605 26.5885 28.4174C29.2874 26.7744 31.3909 24.439 32.6331 21.7067C33.8753 18.9744 34.2003 15.9678 33.567 13.0672C32.9338 10.1665 31.3707 7.50216 29.0755 5.41092C26.7802 3.31969 23.8559 1.89555 20.6724 1.31858C17.4888 0.741607 14.1889 1.03773 11.1901 2.1695C8.19123 3.30126 5.62807 5.21784 3.82472 7.67687C2.02137 10.1359 1.05884 13.0269 1.05884 15.9844C1.05884 18.4566 1.71531 20.7877 2.88237 22.8412L1.05884 30.9375L9.94489 29.276C12.1988 30.3394 14.759 30.9375 17.4706 30.9375Z" stroke="black" stroke-width="1.70922" stroke-linecap="round" stroke-linejoin="round"/>
</svg>
