<svg width="35" height="32" viewBox="0 0 35 32" fill="none" xmlns="http://www.w3.org/2000/svg">
<path d="M4.12632 15.6029C3.39796 14.86 2.82089 13.9758 2.42872 13.0017C2.03656 12.0276 1.83715 10.9831 1.84211 9.9291C1.84211 7.79734 2.66694 5.75289 4.13515 4.24551C5.60336 2.73812 7.59469 1.89128 9.67105 1.89128C12.5816 1.89128 15.1237 3.51776 16.4684 5.93856H18.5316C19.2152 4.70747 20.2044 3.68436 21.3984 2.97341C22.5925 2.26247 23.9487 1.88909 25.3289 1.89128C27.4053 1.89128 29.3966 2.73812 30.8648 4.24551C32.3331 5.75289 33.1579 7.79734 33.1579 9.9291C33.1579 12.1419 32.2368 14.1844 30.8737 15.6029L17.5 29.3144L4.12632 15.6029ZM32.1632 16.9456C33.9132 15.13 35 12.6714 35 9.9291C35 7.29575 33.9811 4.77025 32.1674 2.90819C30.3537 1.04613 27.8939 3.41409e-05 25.3289 3.41409e-05C22.1053 3.41409e-05 19.25 1.6076 17.5 4.10405C16.6068 2.83029 15.4306 1.79354 14.069 1.0798C12.7075 0.366064 11.1998 -0.00409324 9.67105 3.41409e-05C7.10613 3.41409e-05 4.64626 1.04613 2.83259 2.90819C1.01891 4.77025 0 7.29575 0 9.9291C0 12.6714 1.08684 15.13 2.83684 16.9456L17.5 32L32.1632 16.9456Z" fill="black"/>
</svg>
