<svg width="20" height="18" viewBox="0 0 20 18" fill="none" xmlns="http://www.w3.org/2000/svg">
<g clip-path="url(#clip0_38_101)">
<path d="M2.35789 8.7766C1.94169 8.35876 1.61194 7.86138 1.38784 7.31345C1.16375 6.76552 1.0498 6.178 1.05263 5.58511C1.05263 4.386 1.52397 3.236 2.36294 2.3881C3.20192 1.54019 4.33982 1.06385 5.52632 1.06385C7.18947 1.06385 8.64211 1.97874 9.41053 3.34044H10.5895C10.9801 2.64795 11.5454 2.07245 12.2277 1.67254C12.91 1.27264 13.6849 1.06261 14.4737 1.06385C15.6602 1.06385 16.7981 1.54019 17.6371 2.3881C18.476 3.236 18.9474 4.386 18.9474 5.58511C18.9474 6.82979 18.4211 7.97873 17.6421 8.7766L10 16.4893L2.35789 8.7766ZM18.3789 9.53191C19.3789 8.51064 20 7.12766 20 5.58511C20 4.10386 19.4178 2.68326 18.3814 1.63586C17.345 0.588447 15.9394 1.92042e-05 14.4737 1.92042e-05C12.6316 1.92042e-05 11 0.904273 10 2.30853C9.48958 1.59204 8.81748 1.00887 8.03945 0.607388C7.26142 0.205911 6.39989 -0.00230245 5.52632 1.92042e-05C4.06065 1.92042e-05 2.65501 0.588447 1.61862 1.63586C0.582235 2.68326 0 4.10386 0 5.58511C0 7.12766 0.621053 8.51064 1.62105 9.53191L10 18L18.3789 9.53191Z" fill="black"/>
</g>
<defs>
<clipPath id="clip0_38_101">
<rect width="20" height="18" fill="white"/>
</clipPath>
</defs>
</svg>
