<svg width="54" height="48" viewBox="0 0 54 48" fill="none" xmlns="http://www.w3.org/2000/svg">
<g filter="url(#filter0_f_43_326)">
<path d="M9.42316 23.5036C8.46589 22.575 7.70745 21.4698 7.19204 20.2521C6.67662 19.0345 6.41454 17.7289 6.42105 16.4114C6.42105 13.7467 7.50512 11.1911 9.43477 9.30688C11.3644 7.42266 13.9816 6.36411 16.7105 6.36411C20.5358 6.36411 23.8768 8.3972 25.6442 11.4232H28.3558C29.2543 9.88433 30.5544 8.60545 32.1236 7.71677C33.6929 6.82809 35.4754 6.36136 37.2895 6.36411C40.0184 6.36411 42.6356 7.42266 44.5652 9.30688C46.4949 11.1911 47.5789 13.7467 47.5789 16.4114C47.5789 19.1773 46.3684 21.7305 44.5768 23.5036L27 40.643L9.42316 23.5036ZM46.2716 25.1821C48.5716 22.9126 50 19.8393 50 16.4114C50 13.1197 48.6609 9.96281 46.2772 7.63524C43.8935 5.30766 40.6605 4.00004 37.2895 4.00004C33.0526 4.00004 29.3 6.0095 27 9.13006C25.826 7.53786 24.2802 6.24193 22.4907 5.34975C20.7013 4.45758 18.7197 3.99488 16.7105 4.00004C13.3395 4.00004 10.1065 5.30766 7.72283 7.63524C5.33914 9.96281 4 13.1197 4 16.4114C4 19.8393 5.42842 22.9126 7.72842 25.1821L27 44L46.2716 25.1821Z" fill="black"/>
</g>
<g clip-path="url(#clip0_43_326)">
<path d="M9.42316 23.5036C8.46589 22.575 7.70745 21.4698 7.19204 20.2521C6.67662 19.0345 6.41454 17.7289 6.42105 16.4114C6.42105 13.7467 7.50512 11.1911 9.43477 9.30688C11.3644 7.42266 13.9816 6.36411 16.7105 6.36411C20.5358 6.36411 23.8768 8.3972 25.6442 11.4232H28.3558C29.2543 9.88433 30.5544 8.60545 32.1236 7.71677C33.6929 6.82809 35.4754 6.36136 37.2895 6.36411C40.0184 6.36411 42.6356 7.42266 44.5652 9.30688C46.4949 11.1911 47.5789 13.7467 47.5789 16.4114C47.5789 19.1773 46.3684 21.7305 44.5768 23.5036L27 40.643L9.42316 23.5036ZM46.2716 25.1821C48.5716 22.9126 50 19.8393 50 16.4114C50 13.1197 48.6609 9.96281 46.2772 7.63524C43.8935 5.30766 40.6605 4.00004 37.2895 4.00004C33.0526 4.00004 29.3 6.0095 27 9.13006C25.826 7.53786 24.2802 6.24193 22.4907 5.34975C20.7013 4.45758 18.7197 3.99488 16.7105 4.00004C13.3395 4.00004 10.1065 5.30766 7.72283 7.63524C5.33914 9.96281 4 13.1197 4 16.4114C4 19.8393 5.42842 22.9126 7.72842 25.1821L27 44L46.2716 25.1821Z" fill="white"/>
</g>
<defs>
<filter id="filter0_f_43_326" x="0" y="0" width="54" height="48" filterUnits="userSpaceOnUse" color-interpolation-filters="sRGB">
<feFlood flood-opacity="0" result="BackgroundImageFix"/>
<feBlend mode="normal" in="SourceGraphic" in2="BackgroundImageFix" result="shape"/>
<feGaussianBlur stdDeviation="2" result="effect1_foregroundBlur_43_326"/>
</filter>
<clipPath id="clip0_43_326">
<rect width="46" height="40" fill="white" transform="translate(4 4)"/>
</clipPath>
</defs>
</svg>
