<svg width="58" height="52" viewBox="0 0 58 52" fill="none" xmlns="http://www.w3.org/2000/svg">
<g filter="url(#filter0_f_532_3407)">
<path d="M10.6589 25.4787C9.66006 24.5038 8.86865 23.3432 8.33082 22.0647C7.793 20.7862 7.51951 19.4153 7.52632 18.0319C7.52632 15.234 8.65752 12.5507 10.6711 10.5722C12.6846 8.59379 15.4156 7.48231 18.2632 7.48231C22.2547 7.48231 25.7411 9.61706 27.5853 12.7944H30.4147C31.3523 11.1785 32.7089 9.83572 34.3464 8.90261C35.9839 7.96949 37.8439 7.47943 39.7368 7.48231C42.5844 7.48231 45.3154 8.59379 47.3289 10.5722C49.3425 12.5507 50.4737 15.234 50.4737 18.0319C50.4737 20.9362 49.2105 23.617 47.3411 25.4787L29 43.4752L10.6589 25.4787ZM49.1095 27.2412C51.5095 24.8582 53 21.6312 53 18.0319C53 14.5757 51.6026 11.261 49.1153 8.817C46.628 6.37304 43.2544 5.00004 39.7368 5.00004C35.3158 5.00004 31.4 7.10997 29 10.3866C27.775 8.71475 26.162 7.35402 24.2947 6.41724C22.4274 5.48046 20.3597 4.99463 18.2632 5.00004C14.7455 5.00004 11.372 6.37304 8.88469 8.817C6.39736 11.261 5 14.5757 5 18.0319C5 21.6312 6.49053 24.8582 8.89053 27.2412L29 47L49.1095 27.2412Z" fill="black"/>
</g>
<path d="M10.6589 25.4787C9.66006 24.5038 8.86865 23.3432 8.33082 22.0647C7.793 20.7862 7.51951 19.4153 7.52632 18.0319C7.52632 15.234 8.65752 12.5507 10.6711 10.5722C12.6846 8.59379 15.4156 7.48231 18.2632 7.48231C22.2547 7.48231 25.741 9.61706 27.5853 12.7944H30.4147C31.3523 11.1785 32.7089 9.83572 34.3464 8.90261C35.9839 7.96949 37.8439 7.47943 39.7368 7.48231C42.5844 7.48231 45.3154 8.59379 47.3289 10.5722C49.3425 12.5507 50.4737 15.234 50.4737 18.0319C50.4737 20.9362 49.2105 23.617 47.3411 25.4787L29 43.4752L10.6589 25.4787ZM49.1095 27.2412C51.5095 24.8582 53 21.6312 53 18.0319C53 14.5757 51.6026 11.261 49.1153 8.817C46.628 6.37304 43.2544 5.00004 39.7368 5.00004C35.3158 5.00004 31.4 7.10997 29 10.3866C27.775 8.71475 26.162 7.35402 24.2947 6.41724C22.4274 5.48046 20.3597 4.99463 18.2632 5.00004C14.7455 5.00004 11.372 6.37304 8.88469 8.817C6.39736 11.261 5 14.5757 5 18.0319C5 21.6312 6.49053 24.8582 8.89053 27.2412L29 47L49.1095 27.2412Z" fill="white"/>
<path d="M10.6589 25.4787C9.66006 24.5038 8.86865 23.3432 8.33082 22.0647C7.793 20.7862 7.51951 19.4153 7.52632 18.0319C7.52632 15.234 8.65752 12.5507 10.6711 10.5722C12.6846 8.59379 15.4156 7.48231 18.2632 7.48231C22.2547 7.48231 25.741 9.61706 27.5853 12.7944H30.4147C31.3523 11.1785 32.7089 9.83572 34.3464 8.90261C35.9839 7.96949 37.8439 7.47943 39.7368 7.48231C42.5844 7.48231 45.3154 8.59379 47.3289 10.5722C49.3425 12.5507 50.4737 15.234 50.4737 18.0319C50.4737 20.9362 49.2105 23.617 47.3411 25.4787L29 43.4752L10.6589 25.4787Z" fill="#BE212F"/>
<defs>
<filter id="filter0_f_532_3407" x="0.822572" y="0.822572" width="56.3549" height="50.3549" filterUnits="userSpaceOnUse" color-interpolation-filters="sRGB">
<feFlood flood-opacity="0" result="BackgroundImageFix"/>
<feBlend mode="normal" in="SourceGraphic" in2="BackgroundImageFix" result="shape"/>
<feGaussianBlur stdDeviation="2.08871" result="effect1_foregroundBlur_532_3407"/>
</filter>
</defs>
</svg>
