<svg width="16" height="16" viewBox="0 0 16 16" fill="none" xmlns="http://www.w3.org/2000/svg">
<path fill-rule="evenodd" clip-rule="evenodd" d="M2.18437 5.0736C1.91614 5.72111 1.77809 6.41511 1.77809 7.11597C1.77809 8.53142 2.34041 9.8889 3.34135 10.8898C4.34229 11.8907 5.69986 12.4529 7.1154 12.4529C8.53095 12.4529 9.88851 11.8907 10.8895 10.8898C11.8904 9.8889 12.4527 8.53142 12.4527 7.11597C12.4527 6.41511 12.3147 5.72111 12.0464 5.0736C11.7782 4.42609 11.3851 3.83774 10.8895 3.34216C10.3938 2.84657 9.80546 2.45345 9.15791 2.18525C8.51035 1.91704 7.81631 1.77899 7.1154 1.77899C6.4145 1.77899 5.72045 1.91704 5.0729 2.18525C4.42535 2.45345 3.83697 2.84657 3.34135 3.34216C2.84574 3.83774 2.45259 4.42609 2.18437 5.0736ZM3.85977 0.78884C4.86675 0.270601 5.98288 0.000162178 7.1154 4.39556e-08C8.44715 -0.000147941 9.75222 0.373374 10.8822 1.07809C12.0122 1.78281 12.9217 2.79044 13.5074 3.98641C14.0931 5.18237 14.3315 6.51868 14.1953 7.84337C14.0592 9.16806 13.5541 10.428 12.7374 11.4798L15.7503 14.4926C15.9123 14.6603 16.002 14.885 16 15.1182C15.9979 15.3515 15.9044 15.5746 15.7395 15.7395C15.5745 15.9044 15.3514 15.9979 15.1182 16C14.8849 16.002 14.6602 15.9123 14.4925 15.7503L11.4795 12.7376C10.5849 13.4319 9.53736 13.9027 8.42412 14.1108C7.31088 14.3189 6.16405 14.2583 5.07893 13.934C3.99382 13.6098 3.00176 13.0313 2.18521 12.2466C1.36866 11.4619 0.751194 10.4936 0.384137 9.42229C0.0170802 8.35096 -0.0889704 7.20751 0.0747991 6.08696C0.238569 4.96641 0.667428 3.90112 1.32574 2.97964C1.98404 2.05815 2.85279 1.30708 3.85977 0.78884Z" fill="black"/>
<path d="M7.1154 10.674C8.0591 10.674 8.96414 10.2991 9.63144 9.63185C10.2987 8.96459 10.6736 8.05961 10.6736 7.11597C10.6736 6.17233 10.2987 5.26735 9.63144 4.60009C8.96414 3.93284 8.0591 3.55798 7.1154 3.55798C6.17171 3.55798 5.26666 3.93284 4.59937 4.60009C3.93207 5.26735 3.55719 6.17233 3.55719 7.11597C3.55719 8.05961 3.93207 8.96459 4.59937 9.63185C5.26666 10.2991 6.17171 10.674 7.1154 10.674Z" fill="#FDE2B0"/>
</svg>
