<svg width="28" height="27" viewBox="0 0 28 27" fill="none" xmlns="http://www.w3.org/2000/svg">
<g clip-path="url(#clip0_351_13)">
<path d="M2.27142 12.9082L10.2111 10.0181L13.0994 2.08026C13.1656 1.89841 13.2861 1.74135 13.4447 1.63036C13.6032 1.51937 13.792 1.45984 13.9856 1.45984C14.1791 1.45984 14.3679 1.51937 14.5264 1.63036C14.685 1.74135 14.8055 1.89841 14.8718 2.08026L17.7619 10.02L25.7016 12.9082C25.8834 12.9744 26.0405 13.095 26.1515 13.2535C26.2625 13.412 26.322 13.6009 26.322 13.7944C26.322 13.9879 26.2625 14.1768 26.1515 14.3353C26.0405 14.4938 25.8834 14.6144 25.7016 14.6806L17.76 17.5707L14.8718 25.5104C14.8055 25.6923 14.685 25.8493 14.5264 25.9603C14.3679 26.0713 14.1791 26.1308 13.9856 26.1308C13.792 26.1308 13.6032 26.0713 13.4447 25.9603C13.2861 25.8493 13.1656 25.6923 13.0994 25.5104L10.2093 17.5688L2.27142 14.6806C2.08958 14.6144 1.93251 14.4938 1.82152 14.3353C1.71053 14.1768 1.651 13.9879 1.651 13.7944C1.651 13.6009 1.71053 13.412 1.82152 13.2535C1.93251 13.095 2.08958 12.9744 2.27142 12.9082Z" fill="black" stroke="black" stroke-width="1.71765" stroke-linecap="round" stroke-linejoin="round"/>
</g>
<defs>
<clipPath id="clip0_351_13">
<rect width="26.3157" height="26.3157" fill="white" transform="translate(0.828644 0.637451)"/>
</clipPath>
</defs>
</svg>
