<svg width="50" height="50" viewBox="0 0 50 50" fill="none" xmlns="http://www.w3.org/2000/svg">
<g clip-path="url(#clip0_536_3412)">
<path d="M3.18194 23.8099L18.3077 18.3041L23.8099 3.18194C23.9361 2.83552 24.1657 2.53629 24.4678 2.32485C24.7698 2.11341 25.1295 2 25.4982 2C25.8669 2 26.2266 2.11341 26.5286 2.32485C26.8307 2.53629 27.0603 2.83552 27.1865 3.18194L32.6923 18.3077L47.8181 23.8099C48.1645 23.9361 48.4637 24.1657 48.6751 24.4678C48.8866 24.7698 49 25.1295 49 25.4982C49 25.8669 48.8866 26.2266 48.6751 26.5286C48.4637 26.8307 48.1645 27.0603 47.8181 27.1865L32.6887 32.6923L27.1865 47.8181C27.0603 48.1645 26.8307 48.4637 26.5286 48.6751C26.2266 48.8866 25.8669 49 25.4982 49C25.1295 49 24.7698 48.8866 24.4678 48.6751C24.1657 48.4637 23.9361 48.1645 23.8099 47.8181L18.3041 32.6887L3.18194 27.1865C2.83552 27.0603 2.53629 26.8307 2.32485 26.5286C2.11341 26.2266 2 25.8669 2 25.4982C2 25.1295 2.11341 24.7698 2.32485 24.4678C2.53629 24.1657 2.83552 23.9361 3.18194 23.8099Z" stroke="black" stroke-width="2" stroke-linecap="round" stroke-linejoin="round"/>
</g>
<defs>
<clipPath id="clip0_536_3412">
<rect width="50" height="50" fill="white"/>
</clipPath>
</defs>
</svg>
