<svg width="28" height="27" viewBox="0 0 28 27" fill="none" xmlns="http://www.w3.org/2000/svg">
<g clip-path="url(#clip0_351_271)">
<path d="M2.28106 12.9082L10.2208 10.0181L13.109 2.08026C13.1752 1.89841 13.2958 1.74135 13.4543 1.63036C13.6128 1.51937 13.8017 1.45984 13.9952 1.45984C14.1887 1.45984 14.3776 1.51937 14.5361 1.63036C14.6946 1.74135 14.8152 1.89841 14.8814 2.08026L17.7715 10.02L25.7112 12.9082C25.8931 12.9744 26.0501 13.095 26.1611 13.2535C26.2721 13.412 26.3316 13.6009 26.3316 13.7944C26.3316 13.9879 26.2721 14.1768 26.1611 14.3353C26.0501 14.4938 25.8931 14.6144 25.7112 14.6806L17.7696 17.5707L14.8814 25.5104C14.8152 25.6923 14.6946 25.8493 14.5361 25.9603C14.3776 26.0713 14.1887 26.1308 13.9952 26.1308C13.8017 26.1308 13.6128 26.0713 13.4543 25.9603C13.2958 25.8493 13.1752 25.6923 13.109 25.5104L10.2189 17.5688L2.28106 14.6806C2.09922 14.6144 1.94215 14.4938 1.83116 14.3353C1.72018 14.1768 1.66064 13.9879 1.66064 13.7944C1.66064 13.6009 1.72018 13.412 1.83116 13.2535C1.94215 13.095 2.09922 12.9744 2.28106 12.9082Z" stroke="black" stroke-width="1.71765" stroke-linecap="round" stroke-linejoin="round"/>
</g>
<defs>
<clipPath id="clip0_351_271">
<rect width="26.3157" height="26.3157" fill="white" transform="translate(0.838257 0.637451)"/>
</clipPath>
</defs>
</svg>
